<?xml version="1.0" standalone="no"?>
<!DOCTYPE svg PUBLIC "-//W3C//DTD SVG 20010904//EN"
 "http://www.w3.org/TR/2001/REC-SVG-20010904/DTD/svg10.dtd">
<svg version="1.0" xmlns="http://www.w3.org/2000/svg"
 width="520.000000pt" height="520.000000pt" viewBox="0 0 520.000000 520.000000"
 preserveAspectRatio="xMidYMid meet">
<metadata>
Created by potrace 1.14, written by Peter Selinger 2001-2017
</metadata>
<g transform="translate(0.000000,520.000000) scale(0.100000,-0.100000)"
fill="#000000" stroke="none">
<path d="M2409 5185 c-2 -1 -35 -6 -74 -10 -38 -3 -82 -8 -96 -10 -50 -6 -244
-45 -279 -55 -19 -6 -44 -13 -55 -15 -32 -7 -269 -87 -280 -95 -5 -4 -37 -17
-70 -30 -33 -13 -64 -27 -70 -31 -5 -4 -53 -29 -105 -56 -83 -43 -205 -116
-235 -141 -5 -4 -32 -23 -60 -42 -27 -18 -52 -36 -55 -40 -3 -3 -36 -30 -75
-60 -114 -90 -334 -317 -405 -419 -14 -20 -31 -42 -38 -50 -16 -17 -112 -158
-112 -165 0 -3 -11 -21 -24 -41 -53 -78 -194 -375 -211 -445 -2 -8 -13 -40
-24 -70 -19 -53 -57 -188 -67 -240 -3 -14 -9 -41 -14 -60 -10 -41 -26 -147
-37 -245 -11 -93 -10 -419 1 -525 9 -94 9 -96 21 -160 13 -79 13 -78 30 -158
3 -12 7 -32 10 -45 11 -52 81 -270 97 -300 5 -10 11 -28 13 -39 15 -78 261
-513 336 -594 10 -11 19 -24 19 -28 0 -4 6 -13 12 -20 7 -7 35 -40 63 -72 67
-79 238 -250 300 -299 28 -22 52 -42 55 -45 16 -18 130 -100 138 -100 6 0 12
-4 14 -9 9 -25 353 -217 463 -259 17 -6 55 -21 85 -33 72 -27 197 -68 227 -73
12 -3 26 -7 31 -10 9 -5 12 -6 157 -35 201 -39 272 -46 505 -46 171 0 298 7
360 20 14 3 41 7 60 10 19 3 58 9 85 15 28 6 59 12 70 14 46 9 269 75 315 93
8 3 20 7 25 8 6 2 33 13 60 25 28 12 79 35 115 51 36 16 72 33 80 39 8 5 35
19 60 31 25 13 48 27 51 32 3 5 10 8 15 7 10 -1 249 155 274 180 9 8 34 28 55
45 157 116 392 373 519 565 30 47 60 90 66 97 5 7 10 14 10 17 0 2 20 38 44
79 25 41 42 78 39 81 -4 3 0 6 7 6 7 0 10 3 7 6 -4 4 2 19 12 33 30 44 150
357 165 433 3 13 12 49 20 80 9 32 18 72 21 90 3 18 8 41 11 51 3 9 14 81 24
160 14 110 18 189 15 352 -2 116 -6 228 -9 250 -4 22 -9 56 -12 75 -3 19 -7
53 -10 75 -3 22 -9 56 -14 75 -5 19 -12 49 -15 65 -3 17 -12 55 -20 85 -9 30
-17 60 -19 67 -1 7 -5 16 -9 19 -4 4 -7 16 -7 26 0 10 -14 56 -32 101 -18 45
-33 87 -34 92 -5 31 -118 259 -176 354 -21 34 -38 65 -38 67 0 8 -168 235
-210 284 -73 86 -240 253 -305 305 -33 26 -62 51 -65 54 -3 4 -21 18 -40 31
-19 14 -39 28 -45 33 -22 17 -135 97 -138 97 -2 0 -42 22 -88 50 -46 27 -89
50 -96 50 -6 0 -13 4 -15 9 -5 14 -336 154 -393 165 -5 2 -43 13 -84 25 -41
13 -81 24 -90 26 -9 2 -47 10 -86 19 -38 9 -86 18 -105 20 -19 3 -51 8 -70 10
-19 3 -53 8 -75 12 -43 6 -471 15 -476 9z"/>
</g>
</svg>
