<?xml version="1.0" encoding="UTF-8"?>
<svg xmlns="http://www.w3.org/2000/svg" version="1.1" viewBox="0 0 640 640">
  <g>
    <g id="Layer_1">
      <path fill="#d9e4ed" d="M640,452c0-37.4-11.2-73.6-32.4-104.6-15.3-22.3-34.9-40.8-57.7-54.5,26.8-25.4,43.6-61.3,43.6-101,0-76.8-62.5-139.2-139.2-139.2s-88.2,22.5-114.1,59.5c-6.6-1-13.3-1.5-20.2-1.5s-13.6.5-20.2,1.5c-25.9-37-68.6-59.5-114.1-59.5-76.8,0-139.2,62.5-139.2,139.2s16.8,75.7,43.6,101c-22.8,13.7-42.4,32.2-57.7,54.5C11.2,378.4,0,414.5,0,452v77.4h134.2v58h371.5v-58h134.2v-77.4h0ZM454.2,87c57.8,0,104.9,47,104.9,104.9s-47,104.9-104.9,104.9-2.1,0-3.1,0c0-.2.1-.4.2-.7,1.8-5.1,3.3-10.3,4.5-15.6,0-.4.2-.8.3-1.1.3-1.4.6-2.9.9-4.3.1-.7.3-1.4.4-2.1.2-1.3.4-2.6.6-3.9.1-.9.2-1.8.3-2.7.1-1.2.3-2.3.4-3.5.1-1.2.2-2.4.3-3.6,0-.9.1-1.9.2-2.8,0-2,.1-4,.2-6.1,0-.1,0-.3,0-.4s0-.2,0-.2c0-2.1,0-4.1-.2-6.2,0-.6,0-1.2,0-1.8-.1-1.7-.2-3.5-.4-5.2,0-.4,0-.8-.1-1.2-5.2-50.2-36.9-93.1-82.6-113,19.7-22.1,48.2-35.3,78.4-35.3ZM283.7,151.4c.3-.1.7-.2,1-.4,1-.4,2.1-.7,3.2-1.1.8-.3,1.6-.5,2.4-.7.6-.2,1.2-.3,1.8-.5,1.1-.3,2.1-.6,3.2-.8,7.9-1.9,16.2-3,24.7-3,8.5,0,16.8,1.1,24.7,3,1.1.3,2.1.5,3.2.8.6.2,1.2.3,1.8.5.8.2,1.6.5,2.4.7,1.1.3,2.1.7,3.2,1.1.3.1.6.2,1,.3,35.1,13,61.4,44.2,67.3,82.1,0,.3,0,.6.1.9.2,1.3.4,2.6.5,3.9,0,.5.1,1,.2,1.4.1,1.2.2,2.4.3,3.6,0,.5,0,1,0,1.5,0,1.5.1,3.1.1,4.6,0,.1,0,.3,0,.4s0,.1,0,.2c0,1.5,0,3-.1,4.5,0,.5,0,.9,0,1.4,0,1.4-.2,2.9-.3,4.3,0,.5-.1,1.1-.2,1.6-.1.9-.2,1.8-.3,2.7,0,.7-.2,1.4-.3,2.1-.2,1.1-.4,2.1-.6,3.2-.2.9-.4,1.9-.6,2.8-.1.6-.3,1.1-.4,1.7-.3,1.4-.7,2.8-1.1,4.2-.2.5-.3,1.1-.5,1.6-.2.8-.5,1.6-.8,2.4-.2.6-.4,1.3-.6,1.9-.2.7-.5,1.4-.8,2.1-.4,1.2-.9,2.4-1.4,3.5-.2.5-.4,1-.7,1.6-.4,1-.9,1.9-1.3,2.9,0,.1-.1.2-.2.3-.2.3-.3.7-.5,1-.5,1-1,2.1-1.6,3.1-.2.4-.4.8-.6,1.2,0,0,0,0,0,0-.6,1.1-1.2,2.1-1.8,3.2-.3.4-.5.8-.8,1.3-.7,1.1-1.4,2.2-2.1,3.3-.5.7-.9,1.3-1.4,2-.4.6-.8,1.1-1.2,1.7-.5.7-1.1,1.4-1.6,2.1-.4.5-.7,1-1.1,1.4-.6.7-1.2,1.4-1.8,2.1-.4.4-.7.9-1.1,1.3-.6.7-1.2,1.4-1.9,2.1-.4.4-.8.8-1.2,1.2-1,1.1-2.1,2.2-3.2,3.2-.6.6-1.3,1.2-1.9,1.8-.5.4-.9.8-1.4,1.2-.8.7-1.5,1.3-2.3,2-.4.3-.8.7-1.2,1-.9.8-1.9,1.5-2.8,2.2-.3.2-.5.4-.8.6-17.5,13-39.1,20.7-62.4,20.7s-45-7.7-62.4-20.7c-.3-.2-.5-.4-.8-.6-1-.7-1.9-1.5-2.9-2.2-.4-.3-.8-.6-1.2-1-.8-.6-1.5-1.3-2.3-2-.5-.4-.9-.8-1.4-1.2-.7-.6-1.3-1.2-1.9-1.8-1.1-1-2.1-2.1-3.2-3.2-.4-.4-.8-.8-1.1-1.2-.6-.7-1.3-1.4-1.9-2.1-.4-.4-.8-.9-1.1-1.3-.6-.7-1.2-1.4-1.8-2.1-.4-.5-.8-1-1.1-1.4-.5-.7-1.1-1.4-1.6-2.1-.4-.6-.8-1.1-1.2-1.7-.5-.7-.9-1.3-1.4-2-.7-1.1-1.4-2.2-2.1-3.3-.3-.4-.5-.8-.7-1.2-.6-1.1-1.3-2.2-1.9-3.3-.2-.4-.4-.8-.6-1.2-.5-1-1.1-2-1.6-3.1-.2-.4-.4-.7-.5-1.1,0,0,0-.1,0-.2-.5-1-.9-2-1.4-3-.2-.5-.4-1-.6-1.5-.5-1.2-1-2.4-1.4-3.6-.2-.7-.5-1.3-.7-2-.2-.7-.5-1.4-.7-2-.2-.7-.5-1.5-.7-2.2-.3-1.1-.7-2.2-1-3.4-.2-.8-.4-1.6-.6-2.4-.2-.6-.3-1.3-.4-1.9-.2-.8-.3-1.5-.5-2.3-.2-1.2-.5-2.4-.7-3.6-.1-.7-.2-1.3-.3-2-.1-1-.3-2-.4-2.9,0-.5-.1-1-.2-1.5-.1-1.4-.3-2.9-.3-4.4,0-.4,0-.8,0-1.3,0-1.6-.1-3.1-.1-4.7s0-3.4.1-5.1c0-.5,0-.9,0-1.4,0-1.3.2-2.5.3-3.8,0-.4,0-.9.1-1.3.1-1.4.3-2.7.5-4,0-.3,0-.5.1-.8,5.9-37.9,32.2-69.1,67.3-82.1ZM80.9,191.8c0-57.8,47-104.9,104.9-104.9s58.7,13.1,78.4,35.3c-45.8,19.9-77.5,62.9-82.6,113.1,0,.3,0,.7,0,1-.2,1.8-.3,3.6-.4,5.4,0,.5,0,1.1,0,1.6,0,2.1-.2,4.3-.2,6.5s0,4.4.2,6.6c0,.9.1,1.8.2,2.6,0,1.3.2,2.5.3,3.8.1,1.1.2,2.2.4,3.3.1,1,.2,1.9.4,2.9.2,1.3.4,2.5.6,3.8.1.7.3,1.5.4,2.2.3,1.4.5,2.8.8,4.2,0,.5.2.9.3,1.4,1.2,5.2,2.6,10.2,4.3,15.1.1.3.2.6.3,1-1,0-2.1,0-3.1,0-57.8,0-104.9-47-104.9-104.9ZM163,410.9c-.4.6-.7,1.2-1.1,1.8-.8,1.3-1.6,2.5-2.3,3.8-.4.7-.8,1.4-1.2,2.2-.7,1.2-1.3,2.4-2,3.6-.4.8-.8,1.5-1.2,2.3-.6,1.2-1.2,2.4-1.8,3.6-.4.8-.8,1.5-1.1,2.3-.6,1.3-1.2,2.6-1.8,3.8-.3.7-.6,1.4-.9,2.1-.7,1.5-1.3,3.1-1.9,4.6-.2.5-.4.9-.6,1.4-.8,2-1.6,4.1-2.3,6.1-.2.5-.3.9-.5,1.4-.5,1.6-1.1,3.2-1.6,4.7-.2.7-.4,1.5-.7,2.2-.4,1.3-.8,2.7-1.2,4.1-.2.8-.4,1.6-.6,2.4-.3,1.3-.7,2.6-1,3.9-.2.8-.4,1.7-.6,2.5-.3,1.3-.6,2.7-.8,4-.2.8-.3,1.6-.5,2.4-.3,1.5-.5,2.9-.7,4.4-.1.7-.2,1.4-.3,2.1-.3,2.1-.6,4.3-.9,6.5,0,0,0,0,0,0-.2,2-.4,3.9-.6,5.9H34.4v-43.1c0-58.9,33.8-111.7,86.9-136.8,19.3,10.2,41.3,15.9,64.6,15.9s13.5-.5,20.2-1.5c1,1.5,2.1,3,3.2,4.4.4.5.8,1,1.1,1.4,1.1,1.4,2.2,2.8,3.3,4.1.5.6.9,1.1,1.4,1.6,1.1,1.2,2.1,2.4,3.3,3.6.6.6,1.2,1.2,1.8,1.9,1,1,2,2.1,3.1,3.1.4.4.8.8,1.2,1.2-1.5.9-3,1.8-4.4,2.8-.2.2-.5.3-.7.5-1.5,1-2.9,1.9-4.4,2.9-.5.3-1,.7-1.5,1-1.3.9-2.5,1.8-3.8,2.8-.4.3-.8.6-1.2.9-1.6,1.2-3.2,2.4-4.7,3.7-.3.3-.7.6-1,.8-1.2,1-2.5,2-3.7,3.1-.5.4-.9.8-1.4,1.2-1.2,1.1-2.4,2.2-3.6,3.3-.3.3-.6.6-.9.9-1.5,1.4-2.9,2.8-4.3,4.2-.4.4-.7.7-1.1,1.1-1.1,1.1-2.2,2.2-3.2,3.4-.4.5-.8.9-1.3,1.4-1.2,1.3-2.4,2.6-3.5,4-.2.2-.4.4-.5.6-1.3,1.5-2.6,3.1-3.9,4.7-.4.4-.7.9-1,1.3-1,1.2-1.9,2.4-2.8,3.7-.4.5-.7,1-1.1,1.4-1.2,1.6-2.4,3.3-3.6,5-1.2,1.8-2.5,3.7-3.6,5.5ZM168.6,553v-43.1c0-1.9,0-3.8.1-5.7,0-.6,0-1.2.1-1.9,0-1.3.1-2.5.2-3.8,0-.8.1-1.5.2-2.3,0-1.1.2-2.2.3-3.3,0-.8.2-1.6.3-2.4.1-1,.3-2.1.4-3.1.1-.8.3-1.7.4-2.5.2-1,.3-2,.5-3,.2-.8.3-1.7.5-2.5.2-1,.4-1.9.6-2.9.2-.9.4-1.7.6-2.5.2-.9.5-1.9.7-2.8.2-.9.5-1.7.7-2.5.3-.9.5-1.8.8-2.8.3-.9.5-1.7.8-2.5.3-.9.6-1.8.9-2.7.3-.8.6-1.7.9-2.5.3-.9.6-1.8,1-2.6.3-.8.7-1.7,1-2.5.4-.9.7-1.7,1.1-2.6.4-.8.7-1.6,1.1-2.5.4-.8.8-1.7,1.2-2.5.4-.8.8-1.6,1.2-2.4.4-.8.8-1.7,1.2-2.5.4-.8.9-1.6,1.3-2.4.4-.8.9-1.6,1.3-2.4.4-.8.9-1.6,1.4-2.4.5-.8.9-1.6,1.4-2.4.5-.8,1-1.5,1.5-2.3.5-.8,1-1.5,1.5-2.3s1-1.5,1.5-2.3c.5-.7,1-1.5,1.6-2.2.5-.7,1.1-1.5,1.6-2.2.5-.7,1.1-1.5,1.6-2.2.6-.7,1.1-1.4,1.7-2.2.6-.7,1.1-1.4,1.7-2.1.6-.7,1.2-1.4,1.8-2.1.6-.7,1.2-1.4,1.8-2.1s1.2-1.4,1.9-2c.6-.7,1.2-1.3,1.9-2,.6-.7,1.3-1.3,1.9-2,.6-.6,1.3-1.3,2-1.9.7-.6,1.3-1.3,2-1.9.7-.6,1.4-1.2,2-1.9.7-.6,1.4-1.2,2.1-1.8.7-.6,1.4-1.2,2.1-1.8.7-.6,1.4-1.2,2.1-1.7.7-.6,1.5-1.2,2.2-1.7.7-.6,1.5-1.1,2.2-1.7.7-.6,1.5-1.1,2.3-1.7.7-.5,1.5-1.1,2.3-1.6.8-.5,1.6-1.1,2.3-1.6.8-.5,1.5-1,2.3-1.5.8-.5,1.6-1,2.4-1.5.8-.5,1.6-1,2.4-1.4.8-.5,1.7-1,2.5-1.4.8-.5,1.6-.9,2.4-1.3.9-.5,1.7-.9,2.6-1.3.8-.4,1.6-.8,2.5-1.2.7-.3,1.3-.6,2-.9,19.3,10.2,41.3,15.9,64.6,15.9s45.2-5.8,64.6-15.9c.7.3,1.3.6,2,.9.8.4,1.7.8,2.5,1.3.9.4,1.7.9,2.5,1.3.8.4,1.6.9,2.4,1.3.8.5,1.6.9,2.5,1.4.8.5,1.6,1,2.4,1.4.8.5,1.6,1,2.4,1.5.8.5,1.6,1,2.3,1.5.8.5,1.5,1,2.3,1.6.8.5,1.5,1.1,2.3,1.6s1.5,1.1,2.2,1.6c.7.6,1.5,1.1,2.2,1.7.7.6,1.5,1.1,2.2,1.7.7.6,1.4,1.2,2.2,1.8.7.6,1.4,1.2,2.1,1.8.7.6,1.4,1.2,2.1,1.8.7.6,1.4,1.2,2,1.8.7.6,1.4,1.3,2,1.9.7.6,1.3,1.3,1.9,1.9s1.3,1.3,1.9,2c.6.7,1.2,1.3,1.9,2,.6.7,1.3,1.4,1.9,2,.6.7,1.2,1.4,1.8,2,.6.7,1.2,1.4,1.8,2.1.6.7,1.1,1.4,1.7,2.1.6.7,1.2,1.4,1.7,2.2.6.7,1.1,1.4,1.6,2.2.5.7,1.1,1.5,1.6,2.2.5.7,1,1.5,1.6,2.2.5.8,1,1.5,1.5,2.3.5.8,1,1.5,1.5,2.3.5.8,1,1.5,1.5,2.3.5.8.9,1.6,1.4,2.3.5.8.9,1.6,1.4,2.4.4.8.9,1.6,1.3,2.4.4.8.9,1.6,1.3,2.4.4.8.8,1.6,1.2,2.5.4.8.8,1.6,1.2,2.4.4.8.8,1.7,1.1,2.5.4.8.7,1.6,1.1,2.5.4.9.7,1.7,1.1,2.6.3.8.7,1.7,1,2.5.3.9.7,1.8,1,2.6.3.8.6,1.7.9,2.5.3.9.6,1.8.9,2.7.3.8.6,1.7.8,2.5.3.9.5,1.8.8,2.8.2.8.5,1.7.7,2.5.2.9.5,1.9.7,2.8.2.8.4,1.7.6,2.5.2,1,.4,1.9.6,2.9.2.8.4,1.7.5,2.5.2,1,.3,2,.5,3,.1.8.3,1.7.4,2.5.2,1,.3,2.1.4,3.1.1.8.2,1.6.3,2.4.1,1.1.2,2.2.3,3.3,0,.8.2,1.5.2,2.3,0,1.3.2,2.5.2,3.8,0,.6,0,1.2.1,1.9,0,1.9.1,3.8.1,5.7v43.1H168.6ZM505.2,495c-.3-4.2-.8-8.3-1.4-12.5,0-.7-.2-1.3-.3-2-.2-1.5-.5-3-.8-4.5-.1-.8-.3-1.6-.5-2.3-.3-1.4-.6-2.7-.9-4.1-.2-.8-.4-1.6-.6-2.4-.3-1.3-.6-2.6-1-4-.2-.8-.4-1.6-.6-2.4-.4-1.4-.8-2.7-1.2-4.1-.2-.7-.4-1.4-.6-2.2-.5-1.6-1-3.2-1.6-4.8-.2-.4-.3-.9-.5-1.3-.7-2.1-1.5-4.1-2.3-6.1-.2-.4-.4-.9-.5-1.3-.6-1.6-1.3-3.1-2-4.7-.3-.7-.6-1.4-.9-2.1-.6-1.3-1.2-2.6-1.8-3.9-.4-.8-.7-1.5-1.1-2.2-.6-1.2-1.2-2.4-1.9-3.6-.4-.8-.8-1.5-1.2-2.3-.7-1.2-1.3-2.4-2-3.6-.4-.7-.8-1.4-1.2-2.1-.8-1.3-1.5-2.6-2.3-3.8-.4-.6-.7-1.2-1.1-1.8-1.2-1.9-2.4-3.7-3.6-5.5-1.2-1.7-2.4-3.4-3.6-5-.4-.5-.7-1-1.1-1.4-.9-1.2-1.9-2.5-2.8-3.7-.3-.4-.7-.9-1-1.3-1.3-1.6-2.6-3.2-3.9-4.7-.2-.2-.3-.4-.5-.6-1.2-1.3-2.3-2.7-3.5-4-.4-.5-.8-.9-1.2-1.3-1.1-1.1-2.1-2.3-3.2-3.4-.4-.4-.7-.7-1.1-1.1-1.4-1.4-2.9-2.8-4.3-4.2-.3-.3-.6-.6-.9-.8-1.2-1.1-2.4-2.2-3.6-3.3-.5-.4-.9-.8-1.4-1.2-1.2-1-2.4-2.1-3.7-3.1-.3-.3-.7-.6-1-.8-1.6-1.3-3.1-2.5-4.7-3.7-.4-.3-.8-.6-1.2-.9-1.3-.9-2.5-1.8-3.8-2.7-.5-.4-1-.7-1.5-1-1.4-1-2.9-1.9-4.3-2.9-.3-.2-.5-.3-.8-.5-1.5-.9-2.9-1.9-4.4-2.8.4-.4.7-.8,1.1-1.1,1.1-1,2.1-2.1,3.1-3.1.6-.6,1.1-1.2,1.7-1.8,1.1-1.2,2.2-2.4,3.3-3.7.5-.5.9-1.1,1.4-1.6,1.2-1.4,2.3-2.8,3.4-4.2.4-.5.7-.9,1.1-1.4,1.1-1.5,2.2-2.9,3.2-4.4,6.7,1,13.5,1.5,20.2,1.5,23.3,0,45.2-5.8,64.6-15.9,53,25.1,86.9,78,86.9,136.8v43.1h-100.5Z"/>
    </g>
  </g>
</svg>